<svg width="500" height="500" viewBox="0 0 500 500" fill="none" xmlns="http://www.w3.org/2000/svg">
<circle cx="250" cy="250" r="250" fill="#020617"/>
<path d="M307.2 334.2C298.533 334.2 292.333 331.733 288.6 326.8C284.867 321.733 283 314.333 283 304.6C283 294.867 286.133 272.467 292.4 237.4H289.2C281.067 248.067 274.333 260.8 269 275.6C263.667 290.4 260.4 303.733 259.2 315.6C252.667 321.733 245.133 324.8 236.6 324.8C233.133 324.8 230.067 323.6 227.4 321.2C224.867 318.667 222.333 314.333 219.8 308.2C214.867 295.8 211.333 272.2 209.2 237.4H206C199.467 266.067 196.2 286.267 196.2 298C196.2 309.733 198.2 318.8 202.2 325.2C194.2 331.2 185.867 334.2 177.2 334.2C168.533 334.2 162.333 331.733 158.6 326.8C154.867 321.733 153 314.267 153 304.4C153 294.4 157.2 266.2 165.6 219.8L155 198.4C170.067 188.667 183.8 183.8 196.2 183.8C201.667 183.8 206.267 184.4 210 185.6C213.867 186.667 217.533 188.8 221 192C224.6 195.2 227.533 199.667 229.8 205.4C235 218.333 238.733 237.2 241 262H243.4C250.333 241.6 259.933 224.067 272.2 209.4C278.867 201.533 286.8 195.333 296 190.8C305.333 186.267 315.4 184 326.2 184C336.467 184 341.6 190.2 341.6 202.6C341.6 206.733 339 222.133 333.8 248.8C328.733 275.333 326.2 291.133 326.2 296.2C326.2 309.133 328.2 318.8 332.2 325.2C324.2 331.2 315.867 334.2 307.2 334.2Z" fill="#7E22CE"/>
</svg>
